<svg width="23" height="16" viewBox="0 0 23 16" fill="none" xmlns="http://www.w3.org/2000/svg">
<path d="M13.2576 5.88162V4.18692C13.8059 3.95431 14.3668 3.77986 14.9403 3.66355C15.5132 3.54725 16.1153 3.4891 16.7467 3.4891C17.1787 3.4891 17.6024 3.52233 18.0177 3.58879C18.4331 3.65524 18.8402 3.73832 19.2389 3.83801V5.43302C18.8402 5.28349 18.4374 5.17151 18.0307 5.09707C17.6233 5.02197 17.1953 4.98442 16.7467 4.98442C16.1153 4.98442 15.5089 5.06351 14.9274 5.22168C14.3459 5.37919 13.7893 5.59917 13.2576 5.88162ZM13.2576 11.3645V9.66978C13.8059 9.43718 14.3668 9.26272 14.9403 9.14642C15.5132 9.03012 16.1153 8.97196 16.7467 8.97196C17.1787 8.97196 17.6024 9.00519 18.0177 9.07165C18.4331 9.13811 18.8402 9.22118 19.2389 9.32087V10.9159C18.8402 10.7664 18.4374 10.6544 18.0307 10.5799C17.6233 10.5048 17.1953 10.4673 16.7467 10.4673C16.1153 10.4673 15.5089 10.5421 14.9274 10.6916C14.3459 10.8411 13.7893 11.0654 13.2576 11.3645ZM13.2576 8.62305V6.92835C13.8059 6.69574 14.3668 6.52129 14.9403 6.40498C15.5132 6.28868 16.1153 6.23053 16.7467 6.23053C17.1787 6.23053 17.6024 6.26376 18.0177 6.33022C18.4331 6.39668 18.8402 6.47975 19.2389 6.57944V8.17445C18.8402 8.02492 18.4374 7.91294 18.0307 7.8385C17.6233 7.76341 17.1953 7.72586 16.7467 7.72586C16.1153 7.72586 15.5089 7.80494 14.9274 7.96312C14.3459 8.12062 13.7893 8.3406 13.2576 8.62305ZM5.78096 11.9626C6.56185 11.9626 7.32215 12.0497 8.06183 12.2238C8.80086 12.3986 9.53589 12.6604 10.2669 13.0093V3.19003C9.58574 2.79128 8.863 2.49221 8.09872 2.29284C7.33444 2.09346 6.56185 1.99377 5.78096 1.99377C5.18283 1.99377 4.58902 2.05192 3.99953 2.16822C3.40937 2.28453 2.84015 2.45898 2.29187 2.69159V12.5607C2.87338 12.3614 3.45091 12.2118 4.02445 12.1121C4.59733 12.0125 5.18283 11.9626 5.78096 11.9626ZM12.2607 13.0093C12.9918 12.6604 13.7271 12.3986 14.4668 12.2238C15.2058 12.0497 15.9658 11.9626 16.7467 11.9626C17.3448 11.9626 17.9307 12.0125 18.5042 12.1121C19.0771 12.2118 19.6543 12.3614 20.2358 12.5607V2.69159C19.6875 2.45898 19.1186 2.28453 18.5291 2.16822C17.939 2.05192 17.3448 1.99377 16.7467 1.99377C15.9658 1.99377 15.1932 2.09346 14.4289 2.29284C13.6647 2.49221 12.9419 2.79128 12.2607 3.19003V13.0093ZM11.2638 15.9502C10.4663 15.3188 9.60235 14.8287 8.67193 14.4798C7.7415 14.1308 6.77785 13.9564 5.78096 13.9564C4.90038 13.9564 3.97826 14.1225 3.01461 14.4548C2.05095 14.7871 1.14545 15.3022 0.298096 16V1.54517C1.02914 1.04673 1.88912 0.66459 2.87803 0.398754C3.86628 0.132918 4.83392 0 5.78096 0C6.74462 0 7.68767 0.124611 8.61012 0.373832C9.53191 0.623053 10.4165 0.996885 11.2638 1.49533C12.1112 0.996885 12.9961 0.623053 13.9185 0.373832C14.8403 0.124611 15.783 0 16.7467 0C17.6937 0 18.6617 0.132918 19.6506 0.398754C20.6389 0.66459 21.4985 1.04673 22.2296 1.54517V16C21.3988 15.3022 20.4976 14.7871 19.526 14.4548C18.5537 14.1225 17.6273 13.9564 16.7467 13.9564C15.7498 13.9564 14.7862 14.1308 13.8557 14.4798C12.9253 14.8287 12.0613 15.3188 11.2638 15.9502Z" fill="#424242"/>
</svg>
