<svg width="17" height="16" viewBox="0 0 17 16" fill="none" xmlns="http://www.w3.org/2000/svg">
<path d="M16.3895 2.85693H14.5323V13.7141C14.5323 14.0172 14.6528 14.3079 14.8671 14.5222C15.0814 14.7365 15.3721 14.8569 15.6752 14.8569C15.9783 14.8569 16.269 14.7365 16.4833 14.5222C16.6977 14.3079 16.8181 14.0172 16.8181 13.7141V3.28551C16.8181 3.17184 16.7729 3.06283 16.6925 2.98246C16.6122 2.90209 16.5032 2.85693 16.3895 2.85693Z" fill="#424242"/>
<path d="M15.0735 15.9196C14.5901 15.787 14.1636 15.4995 13.8594 15.1011C13.5552 14.7027 13.3901 14.2155 13.3895 13.7143V0.428571C13.3895 0.314907 13.3444 0.205898 13.264 0.125526C13.1836 0.0451529 13.0746 0 12.961 0H1.24669C1.13302 0 1.02401 0.0451529 0.943641 0.125526C0.863268 0.205898 0.818115 0.314907 0.818115 0.428571V14C0.818115 14.5304 1.02883 15.0391 1.4039 15.4142C1.77897 15.7893 2.28768 16 2.81812 16H15.0628C15.0729 16.0004 15.0828 15.997 15.0905 15.9905C15.0983 15.9839 15.1033 15.9747 15.1047 15.9647C15.106 15.9547 15.1036 15.9445 15.0978 15.9361C15.092 15.9278 15.0833 15.9219 15.0735 15.9196ZM3.10383 6.28571V2.85714H6.5324V6.28571H3.10383ZM11.1038 13.1429H3.10383V12H11.1038V13.1429ZM11.1038 10.8571H3.10383V9.71429H11.1038V10.8571ZM11.1038 8.57143H3.10383V7.42857H11.1038V8.57143ZM11.1038 6.28571H7.67526V5.14286H11.1038V6.28571ZM11.1038 4H7.67526V2.85714H11.1038V4Z" fill="#424242"/>
</svg>
