<svg width="14" height="20" viewBox="0 0 14 20" fill="none" xmlns="http://www.w3.org/2000/svg">
<path d="M7.40249 11.3013H3.26937V10.471H6.58704V8.01343H7.40621V11.305L7.40249 11.3013ZM6.9929 5.66016C4.15557 5.66016 1.85815 7.99853 1.85815 10.8843C1.85815 13.77 4.15557 16.1084 6.9929 16.1084C9.83023 16.1084 12.1276 13.77 12.1276 10.8843C12.1276 7.99853 9.83023 5.66016 6.9929 5.66016Z" fill="#656565"/>
<path d="M6.99279 16.9611C3.70119 16.9611 1.02025 14.2355 1.02025 10.8843C1.02025 7.53316 3.70119 4.80754 6.99279 4.80754C10.2844 4.80754 12.9653 7.53316 12.9653 10.8843C12.9653 14.2355 10.2881 16.9611 6.99279 16.9611ZM7.60717 3.79846V3.24738H8.93647V2H5.0491V3.24738H6.38213V3.79846C2.81126 4.11496 0 7.17198 0 10.8843C0 14.8089 3.13521 18 6.99279 18C10.8504 18 13.9856 14.8089 13.9856 10.8843C13.9856 7.17198 11.1743 4.11496 7.60344 3.79846" fill="#656565"/>
</svg>
